# xmcd CD database file
#
# Track frame offsets:
#	150
#	18395
#	41340
#	72541
#	92174
#	130641
#	159414
#
# Disc length: 2751 seconds
#
# Revision: 2
# Processed by: cddbd v1.4b41PL1 Copyright (c) Steve Scherf et al.
# Submitted via: Feurio! 1.50.2ß - http://www.feurio.com
#
DISCID=520abd07
DTITLE=Van Morrison - Live auf der Loreley, 9.Juli.1999, CD 1
DYEAR=1900
DGENRE=
TTITLE0=It's all over now, Baby Blue
TTITLE1=TB Sheets
TTITLE2=Moondance
TTITLE3=Back on Top
TTITLE4=Philosopher's Stone
TTITLE5=Centre Piece
TTITLE6=In the Afternoon
EXTD=
EXTT0=
EXTT1=
EXTT2=
EXTT3=
EXTT4=
EXTT5=
EXTT6=
PLAYORDER=
